<?xml version="1.0" encoding="UTF-8" standalone="no"?><!-- Generator: Gravit.io --><svg xmlns="http://www.w3.org/2000/svg" xmlns:xlink="http://www.w3.org/1999/xlink" style="isolation:isolate" viewBox="117.554 356 1141.884 322" width="1141.884pt" height="322pt"><path d=" M 383.18 357.516 L 383.18 605.752 L 335.184 605.752 L 335.184 357.516 L 383.18 357.516 Z  M 524.283 513.969 L 524.283 513.969 Q 524.283 492.749 514.6 476.413 L 514.6 476.413 L 514.6 476.413 Q 504.916 460.077 483.191 460.077 L 483.191 460.077 L 483.191 460.077 Q 457.088 460.077 447.32 484.834 L 447.32 484.834 L 447.32 484.834 Q 442.268 497.97 442.268 518.179 L 442.268 518.179 L 442.268 518.179 Q 442.268 550.177 459.277 563.144 L 459.277 563.144 L 459.277 563.144 Q 469.382 570.723 483.191 570.723 L 483.191 570.723 L 483.191 570.723 Q 503.232 570.723 513.758 555.229 L 513.758 555.229 L 513.758 555.229 Q 524.283 539.735 524.283 513.969 L 524.283 513.969 Z  M 497.001 418.143 L 497.001 418.143 Q 529.167 418.143 551.482 441.889 L 551.482 441.889 L 551.482 441.889 Q 573.796 465.635 573.796 511.611 L 573.796 511.611 L 573.796 511.611 Q 573.796 560.113 551.987 585.543 L 551.987 585.543 L 551.987 585.543 Q 530.178 610.973 495.822 610.973 L 495.822 610.973 L 495.822 610.973 Q 473.929 610.973 459.445 600.026 L 459.445 600.026 L 459.445 600.026 Q 451.53 593.963 443.952 582.343 L 443.952 582.343 L 443.952 678 L 396.46 678 L 396.46 422.185 L 442.436 422.185 L 442.436 449.299 L 442.436 449.299 Q 450.183 437.342 458.94 430.437 L 458.94 430.437 L 458.94 430.437 Q 474.939 418.143 497.001 418.143 L 497.001 418.143 Z  M 702.773 513.969 L 702.773 513.969 Q 702.773 492.749 693.09 476.413 L 693.09 476.413 L 693.09 476.413 Q 683.406 460.077 661.681 460.077 L 661.681 460.077 L 661.681 460.077 Q 635.578 460.077 625.81 484.834 L 625.81 484.834 L 625.81 484.834 Q 620.758 497.97 620.758 518.179 L 620.758 518.179 L 620.758 518.179 Q 620.758 550.177 637.767 563.144 L 637.767 563.144 L 637.767 563.144 Q 647.872 570.723 661.681 570.723 L 661.681 570.723 L 661.681 570.723 Q 681.722 570.723 692.248 555.229 L 692.248 555.229 L 692.248 555.229 Q 702.773 539.735 702.773 513.969 L 702.773 513.969 Z  M 675.491 418.143 L 675.491 418.143 Q 707.657 418.143 729.972 441.889 L 729.972 441.889 L 729.972 441.889 Q 752.286 465.635 752.286 511.611 L 752.286 511.611 L 752.286 511.611 Q 752.286 560.113 730.477 585.543 L 730.477 585.543 L 730.477 585.543 Q 708.668 610.973 674.312 610.973 L 674.312 610.973 L 674.312 610.973 Q 652.419 610.973 637.935 600.026 L 637.935 600.026 L 637.935 600.026 Q 630.02 593.963 622.442 582.343 L 622.442 582.343 L 622.442 678 L 574.95 678 L 574.95 422.185 L 620.926 422.185 L 620.926 449.299 L 620.926 449.299 Q 628.673 437.342 637.43 430.437 L 637.43 430.437 L 637.43 430.437 Q 653.429 418.143 675.491 418.143 L 675.491 418.143 Z  M 837.14 571.902 L 837.14 571.902 Q 858.191 571.902 869.475 556.913 L 869.475 556.913 L 869.475 556.913 Q 880.758 541.925 880.758 514.305 L 880.758 514.305 L 880.758 514.305 Q 880.758 486.686 869.475 471.782 L 869.475 471.782 L 869.475 471.782 Q 858.191 456.878 837.14 456.878 L 837.14 456.878 L 837.14 456.878 Q 816.089 456.878 804.721 471.782 L 804.721 471.782 L 804.721 471.782 Q 793.353 486.686 793.353 514.305 L 793.353 514.305 L 793.353 514.305 Q 793.353 541.925 804.721 556.913 L 804.721 556.913 L 804.721 556.913 Q 816.089 571.902 837.14 571.902 L 837.14 571.902 Z  M 931.113 514.305 L 931.113 514.305 Q 931.113 554.724 907.872 583.438 L 907.872 583.438 L 907.872 583.438 Q 884.631 612.152 837.308 612.152 L 837.308 612.152 L 837.308 612.152 Q 789.985 612.152 766.744 583.438 L 766.744 583.438 L 766.744 583.438 Q 743.504 554.724 743.504 514.305 L 743.504 514.305 L 743.504 514.305 Q 743.504 474.561 766.744 445.426 L 766.744 445.426 L 766.744 445.426 Q 789.985 416.291 837.308 416.291 L 837.308 416.291 L 837.308 416.291 Q 884.631 416.291 907.872 445.426 L 907.872 445.426 L 907.872 445.426 Q 931.113 474.561 931.113 514.305 L 931.113 514.305 Z  M 837.308 417.301 M 982.621 356 L 982.621 400.292 L 933.951 400.292 L 933.951 356 L 982.621 356 Z  M 933.951 605.752 L 933.951 422.185 L 982.621 422.185 L 982.621 605.752 L 933.951 605.752 Z  M 1098.631 417.806 L 1098.631 417.806 Q 1127.092 417.806 1145.197 432.711 L 1145.197 432.711 L 1145.197 432.711 Q 1163.301 447.615 1163.301 482.139 L 1163.301 482.139 L 1163.301 605.752 L 1114.125 605.752 L 1114.125 494.096 L 1114.125 494.096 Q 1114.125 479.613 1110.251 471.866 L 1110.251 471.866 L 1110.251 471.866 Q 1103.178 457.72 1083.306 457.72 L 1083.306 457.72 L 1083.306 457.72 Q 1058.886 457.72 1049.792 478.434 L 1049.792 478.434 L 1049.792 478.434 Q 1045.077 489.381 1045.077 506.39 L 1045.077 506.39 L 1045.077 605.752 L 997.248 605.752 L 997.248 422.522 L 1043.561 422.522 L 1043.561 449.299 L 1043.561 449.299 Q 1052.824 435.153 1061.076 428.922 L 1061.076 428.922 L 1061.076 428.922 Q 1075.896 417.806 1098.631 417.806 L 1098.631 417.806 Z  M 1080.948 417.301 M 1182.138 458.056 L 1156.54 458.056 L 1156.54 423.869 L 1182.138 423.869 L 1182.138 384.169 L 1229.63 356.577 L 1229.63 423.869 L 1259.438 423.869 L 1259.438 458.056 L 1229.63 458.056 L 1229.63 555.061 L 1229.63 555.061 Q 1229.63 566.344 1232.492 569.123 L 1232.492 569.123 L 1232.492 569.123 Q 1235.355 571.902 1250.007 571.902 L 1250.007 571.902 L 1250.007 571.902 Q 1252.196 571.902 1254.638 571.817 L 1254.638 571.817 L 1254.638 571.817 Q 1257.08 571.733 1259.438 571.565 L 1259.438 571.565 L 1259.438 607.436 L 1236.703 608.278 L 1236.703 608.278 Q 1202.684 609.457 1190.222 596.49 L 1190.222 596.49 L 1190.222 596.49 Q 1182.138 588.237 1182.138 571.06 L 1182.138 571.06 L 1182.138 458.056 Z " fill="rgb(59,49,49)"/><path d=" M 226.948 417.201 L 171.444 605.329 L 117.554 605.012 L 203.723 357.278 L 252.729 357.566 L 335.136 606.292 L 279.73 605.966 L 226.948 417.201 Z " fill="rgb(251,102,0)"/><rect x="203.705" y="567.806" width="41.388" height="41.388" transform="matrix(1,0,0,1,0,0)" fill="rgb(59,49,49)"/></svg>