<?xml version="1.0" encoding="UTF-8" standalone="no"?><!-- Generator: Gravit.io --><svg xmlns="http://www.w3.org/2000/svg" xmlns:xlink="http://www.w3.org/1999/xlink" style="isolation:isolate" viewBox="146.058 344 1141.884 322" width="1141.884pt" height="322pt"><path d=" M 411.684 345.516 L 411.684 593.752 L 363.688 593.752 L 363.688 345.516 L 411.684 345.516 Z  M 552.787 501.969 L 552.787 501.969 Q 552.787 480.749 543.104 464.413 L 543.104 464.413 L 543.104 464.413 Q 533.42 448.077 511.695 448.077 L 511.695 448.077 L 511.695 448.077 Q 485.592 448.077 475.824 472.834 L 475.824 472.834 L 475.824 472.834 Q 470.772 485.97 470.772 506.179 L 470.772 506.179 L 470.772 506.179 Q 470.772 538.177 487.781 551.144 L 487.781 551.144 L 487.781 551.144 Q 497.886 558.723 511.695 558.723 L 511.695 558.723 L 511.695 558.723 Q 531.736 558.723 542.262 543.229 L 542.262 543.229 L 542.262 543.229 Q 552.787 527.735 552.787 501.969 L 552.787 501.969 Z  M 525.505 406.143 L 525.505 406.143 Q 557.671 406.143 579.986 429.889 L 579.986 429.889 L 579.986 429.889 Q 602.3 453.635 602.3 499.611 L 602.3 499.611 L 602.3 499.611 Q 602.3 548.113 580.491 573.543 L 580.491 573.543 L 580.491 573.543 Q 558.682 598.973 524.326 598.973 L 524.326 598.973 L 524.326 598.973 Q 502.433 598.973 487.949 588.026 L 487.949 588.026 L 487.949 588.026 Q 480.034 581.963 472.456 570.343 L 472.456 570.343 L 472.456 666 L 424.964 666 L 424.964 410.185 L 470.94 410.185 L 470.94 437.299 L 470.94 437.299 Q 478.687 425.342 487.444 418.437 L 487.444 418.437 L 487.444 418.437 Q 503.443 406.143 525.505 406.143 L 525.505 406.143 Z  M 731.277 501.969 L 731.277 501.969 Q 731.277 480.749 721.594 464.413 L 721.594 464.413 L 721.594 464.413 Q 711.91 448.077 690.185 448.077 L 690.185 448.077 L 690.185 448.077 Q 664.082 448.077 654.314 472.834 L 654.314 472.834 L 654.314 472.834 Q 649.262 485.97 649.262 506.179 L 649.262 506.179 L 649.262 506.179 Q 649.262 538.177 666.271 551.144 L 666.271 551.144 L 666.271 551.144 Q 676.376 558.723 690.185 558.723 L 690.185 558.723 L 690.185 558.723 Q 710.226 558.723 720.752 543.229 L 720.752 543.229 L 720.752 543.229 Q 731.277 527.735 731.277 501.969 L 731.277 501.969 Z  M 703.995 406.143 L 703.995 406.143 Q 736.161 406.143 758.475 429.889 L 758.475 429.889 L 758.475 429.889 Q 780.79 453.635 780.79 499.611 L 780.79 499.611 L 780.79 499.611 Q 780.79 548.113 758.981 573.543 L 758.981 573.543 L 758.981 573.543 Q 737.172 598.973 702.816 598.973 L 702.816 598.973 L 702.816 598.973 Q 680.923 598.973 666.439 588.026 L 666.439 588.026 L 666.439 588.026 Q 658.524 581.963 650.946 570.343 L 650.946 570.343 L 650.946 666 L 603.454 666 L 603.454 410.185 L 649.43 410.185 L 649.43 437.299 L 649.43 437.299 Q 657.177 425.342 665.934 418.437 L 665.934 418.437 L 665.934 418.437 Q 681.933 406.143 703.995 406.143 L 703.995 406.143 Z  M 865.644 559.902 L 865.644 559.902 Q 886.695 559.902 897.978 544.913 L 897.978 544.913 L 897.978 544.913 Q 909.262 529.925 909.262 502.305 L 909.262 502.305 L 909.262 502.305 Q 909.262 474.686 897.978 459.782 L 897.978 459.782 L 897.978 459.782 Q 886.695 444.878 865.644 444.878 L 865.644 444.878 L 865.644 444.878 Q 844.593 444.878 833.225 459.782 L 833.225 459.782 L 833.225 459.782 Q 821.857 474.686 821.857 502.305 L 821.857 502.305 L 821.857 502.305 Q 821.857 529.925 833.225 544.913 L 833.225 544.913 L 833.225 544.913 Q 844.593 559.902 865.644 559.902 L 865.644 559.902 Z  M 959.617 502.305 L 959.617 502.305 Q 959.617 542.724 936.376 571.438 L 936.376 571.438 L 936.376 571.438 Q 913.135 600.152 865.812 600.152 L 865.812 600.152 L 865.812 600.152 Q 818.489 600.152 795.248 571.438 L 795.248 571.438 L 795.248 571.438 Q 772.008 542.724 772.008 502.305 L 772.008 502.305 L 772.008 502.305 Q 772.008 462.561 795.248 433.426 L 795.248 433.426 L 795.248 433.426 Q 818.489 404.291 865.812 404.291 L 865.812 404.291 L 865.812 404.291 Q 913.135 404.291 936.376 433.426 L 936.376 433.426 L 936.376 433.426 Q 959.617 462.561 959.617 502.305 L 959.617 502.305 Z  M 865.812 405.301 M 1011.125 344 L 1011.125 388.292 L 962.455 388.292 L 962.455 344 L 1011.125 344 Z  M 962.455 593.752 L 962.455 410.185 L 1011.125 410.185 L 1011.125 593.752 L 962.455 593.752 Z  M 1127.135 405.806 L 1127.135 405.806 Q 1155.596 405.806 1173.701 420.711 L 1173.701 420.711 L 1173.701 420.711 Q 1191.805 435.615 1191.805 470.139 L 1191.805 470.139 L 1191.805 593.752 L 1142.629 593.752 L 1142.629 482.096 L 1142.629 482.096 Q 1142.629 467.613 1138.755 459.866 L 1138.755 459.866 L 1138.755 459.866 Q 1131.682 445.72 1111.81 445.72 L 1111.81 445.72 L 1111.81 445.72 Q 1087.39 445.72 1078.296 466.434 L 1078.296 466.434 L 1078.296 466.434 Q 1073.581 477.381 1073.581 494.39 L 1073.581 494.39 L 1073.581 593.752 L 1025.752 593.752 L 1025.752 410.522 L 1072.065 410.522 L 1072.065 437.299 L 1072.065 437.299 Q 1081.328 423.153 1089.58 416.922 L 1089.58 416.922 L 1089.58 416.922 Q 1104.4 405.806 1127.135 405.806 L 1127.135 405.806 Z  M 1109.452 405.301 M 1210.642 446.056 L 1185.044 446.056 L 1185.044 411.869 L 1210.642 411.869 L 1210.642 372.169 L 1258.133 344.577 L 1258.133 411.869 L 1287.942 411.869 L 1287.942 446.056 L 1258.133 446.056 L 1258.133 543.061 L 1258.133 543.061 Q 1258.133 554.344 1260.996 557.123 L 1260.996 557.123 L 1260.996 557.123 Q 1263.859 559.902 1278.511 559.902 L 1278.511 559.902 L 1278.511 559.902 Q 1280.7 559.902 1283.142 559.817 L 1283.142 559.817 L 1283.142 559.817 Q 1285.584 559.733 1287.942 559.565 L 1287.942 559.565 L 1287.942 595.436 L 1265.207 596.278 L 1265.207 596.278 Q 1231.188 597.457 1218.726 584.49 L 1218.726 584.49 L 1218.726 584.49 Q 1210.642 576.237 1210.642 559.06 L 1210.642 559.06 L 1210.642 446.056 Z " fill="rgb(255,255,255)"/><path d=" M 255.452 405.201 L 199.948 593.329 L 146.058 593.012 L 232.227 345.278 L 281.233 345.566 L 363.64 594.292 L 308.234 593.966 L 255.452 405.201 Z " fill="rgb(255,255,255)"/><rect x="232.209" y="555.806" width="41.388" height="41.388" transform="matrix(1,0,0,1,0,0)" fill="rgb(255,255,255)"/></svg>